ffmpeg started on 2025-06-19 at 10:11:55
Report written to "D:\Convert\FFMetrics\reports\ssim_report-6.txt"
Log level: 32
Command line:
ffmpeg -hide_banner -nostdin -i "G:\\\xc0\xed\xe8\xec\xe5\\[\xd2\xee\xef-4]\\RErideD - \xc4\xe5\xf0\xf0\xe8\xe4\xe0, \xef\xee\xea\xee\xf0\xe8\xe2\xf8\xe8\xe9 \xe2\xf0\xe5\xec\xff\\RErideD_Koku_Koe_no_Derrida_[03]_[AniLibria_TV]_[WEBRip_720p]_HEVC.mkv" -i "G:\\\xc0\xed\xe8\xec\xe5\\[\xd2\xee\xef-4]\\RErideD - \xc4\xe5\xf0\xf0\xe8\xe4\xe0, \xef\xee\xea\xee\xf0\xe8\xe2\xf8\xe8\xe9 \xe2\xf0\xe5\xec\xff\\RErideD_Koku_Koe_no_Derrida_[03]_[AniLibria_TV]_[WEBRip_720p].mkv" -lavfi "[0:v]settb=AVTB,setpts=PTS-STARTPTS,format=pix_fmts=yuv420p10,fps=24000/1001,scale=1280:720:flags=bicubic[main];[1:v]settb=AVTB,setpts=PTS-STARTPTS,format=pix_fmts=yuv420p,fps=24000/1001,scale=1280:720:flags=bicubic[ref];[main][ref]ssim=eof_action=endall:stats_file='D\\:/Convert/FFMetrics/logs/ssim_logfile-6.txt'" -f null -
Input #0, matroska,webm, from 'G:\Аниме\[Топ-4]\RErideD - Деррида, покоривший время\RErideD_Koku_Koe_no_Derrida_[03]_[AniLibria_TV]_[WEBRip_720p]_HEVC.mkv':
  Metadata:
    ENCODER         : Lavf61.7.100
  Duration: 00:23:40.00, start: -0.021000, bitrate: 698 kb/s
  Stream #0:0(jpn): Video: hevc (Main 10), yuv420p10le(tv, bt709, progressive), 1280x720 [SAR 1:1 DAR 16:9], 23.98 fps, 23.98 tbr, 1k tbn
      Metadata:
        ENCODER         : Lavc61.19.100 libx265
        BPS             : 500322
        DURATION        : 00:23:39.918708333
        NUMBER_OF_FRAMES: 34044
        NUMBER_OF_BYTES : 88802126
        _STATISTICS_WRITING_APP: mkvpropedit v66.0.0 ('Josie') 64-bit
        _STATISTICS_WRITING_DATE_UTC: 2025-06-17 14:57:20
        _STATISTICS_TAGS: BPS DURATION NUMBER_OF_FRAMES NUMBER_OF_BYTES
  Stream #0:1(rus): Audio: aac (LC), 48000 Hz, stereo, fltp (default) (forced)
      Metadata:
        title           : AniLibria.TV
        ENCODER         : Lavc61.19.100 aac
        BPS             : 194040
        DURATION        : 00:23:39.947000000
        NUMBER_OF_FRAMES: 66561
        NUMBER_OF_BYTES : 34440857
        _STATISTICS_WRITING_APP: mkvpropedit v66.0.0 ('Josie') 64-bit
        _STATISTICS_WRITING_DATE_UTC: 2025-06-17 14:57:20
        _STATISTICS_TAGS: BPS DURATION NUMBER_OF_FRAMES NUMBER_OF_BYTES
  Stream #0:2(rus): Subtitle: ass (ssa)
      Metadata:
        title           : Полные субтитры
        BPS             : 115
        DURATION        : 00:22:05.700000000
        NUMBER_OF_FRAMES: 323
        NUMBER_OF_BYTES : 19137
        _STATISTICS_WRITING_APP: mkvpropedit v66.0.0 ('Josie') 64-bit
        _STATISTICS_WRITING_DATE_UTC: 2025-06-17 14:57:20
        _STATISTICS_TAGS: BPS DURATION NUMBER_OF_FRAMES NUMBER_OF_BYTES
Input #1, matroska,webm, from 'G:\Аниме\[Топ-4]\RErideD - Деррида, покоривший время\RErideD_Koku_Koe_no_Derrida_[03]_[AniLibria_TV]_[WEBRip_720p].mkv':
  Metadata:
    encoder         : libebml v1.4.2 + libmatroska v1.6.4
    creation_time   : 2024-12-15T11:01:39.000000Z
  Duration: 00:23:40.00, start: 0.000000, bitrate: 1960 kb/s
  Stream #1:0(jpn): Video: h264 (High), yuv420p(progressive), 1280x720 [SAR 1:1 DAR 16:9], 23.98 fps, 23.98 tbr, 1k tbn
      Metadata:
        BPS             : 1760877
        DURATION        : 00:23:39.920000000
        NUMBER_OF_FRAMES: 34044
        NUMBER_OF_BYTES : 312538117
        _STATISTICS_WRITING_APP: mkvmerge v66.0.0 ('Josie') 64-bit
        _STATISTICS_WRITING_DATE_UTC: 2024-12-15 11:01:39
        _STATISTICS_TAGS: BPS DURATION NUMBER_OF_FRAMES NUMBER_OF_BYTES
  Stream #1:1(rus): Audio: aac (LC), 48000 Hz, stereo, fltp (default) (forced)
      Metadata:
        title           : AniLibria.TV
        BPS             : 195488
        DURATION        : 00:23:39.947000000
        NUMBER_OF_FRAMES: 66560
        NUMBER_OF_BYTES : 34697851
        _STATISTICS_WRITING_APP: mkvmerge v66.0.0 ('Josie') 64-bit
        _STATISTICS_WRITING_DATE_UTC: 2024-12-15 11:01:39
        _STATISTICS_TAGS: BPS DURATION NUMBER_OF_FRAMES NUMBER_OF_BYTES
  Stream #1:2(rus): Subtitle: ass (ssa)
      Metadata:
        title           : Полные субтитры
        BPS             : 115
        DURATION        : 00:22:05.700000000
        NUMBER_OF_FRAMES: 323
        NUMBER_OF_BYTES : 19137
        _STATISTICS_WRITING_APP: mkvmerge v66.0.0 ('Josie') 64-bit
        _STATISTICS_WRITING_DATE_UTC: 2024-12-15 11:01:39
        _STATISTICS_TAGS: BPS DURATION NUMBER_OF_FRAMES NUMBER_OF_BYTES
  Stream #1:3: Attachment: ttf
      Metadata:
        filename        : OpenSans-Semibold.ttf
        mimetype        : application/x-truetype-font
Stream mapping:
  Stream #0:0 (hevc) -> settb:default
  Stream #1:0 (h264) -> settb:default
  ssim:default -> Stream #0:0 (wrapped_avframe)
  Stream #0:1 -> #0:1 (aac (native) -> pcm_s16le (native))
[swscaler @ 000001f5b5439dc0] No accelerated colorspace conversion found from yuv420p to bgr48le.
[swscaler @ 000001f5b55af240] No accelerated colorspace conversion found from yuv420p to bgr48le.
[swscaler @ 000001f5b5712bc0] No accelerated colorspace conversion found from yuv420p to bgr48le.
[swscaler @ 000001f5b58f1ec0] No accelerated colorspace conversion found from yuv420p to bgr48le.
[swscaler @ 000001f5b59d72c0] No accelerated colorspace conversion found from yuv420p to bgr48le.
[swscaler @ 000001f5b5ae4040] No accelerated colorspace conversion found from yuv420p to bgr48le.
[swscaler @ 000001f5b5b4e740] No accelerated colorspace conversion found from yuv420p to bgr48le.
[swscaler @ 000001f5b5bab740] No accelerated colorspace conversion found from yuv420p to bgr48le.
[swscaler @ 000001f5b5c28740] No accelerated colorspace conversion found from yuv420p to bgr48le.
[swscaler @ 000001f5b5c45fc0] No accelerated colorspace conversion found from yuv420p to bgr48le.
[swscaler @ 000001f5b5cad900] No accelerated colorspace conversion found from yuv420p to bgr48le.
[swscaler @ 000001f5b5d2e040] No accelerated colorspace conversion found from yuv420p to bgr48le.
[swscaler @ 000001f5b5d91040] No accelerated colorspace conversion found from yuv420p to bgr48le.
[swscaler @ 000001f5b5dfa040] No accelerated colorspace conversion found from yuv420p to bgr48le.
[swscaler @ 000001f5b5e59040] No accelerated colorspace conversion found from yuv420p to bgr48le.
[swscaler @ 000001f5ba9ce040] No accelerated colorspace conversion found from yuv420p to bgr48le.
Output #0, null, to 'pipe:':
  Metadata:
    encoder         : Lavf61.7.100
  Stream #0:0: Video: wrapped_avframe, yuv420p10le(tv, bt709, progressive), 1280x720 [SAR 1:1 DAR 16:9], q=2-31, 200 kb/s, 23.98 fps, 23.98 tbn
      Metadata:
        encoder         : Lavc61.19.100 wrapped_avframe
  Stream #0:1(rus): Audio: pcm_s16le, 48000 Hz, stereo, s16, 1536 kb/s (default) (forced)
      Metadata:
        title           : AniLibria.TV
        _STATISTICS_TAGS: BPS DURATION NUMBER_OF_FRAMES NUMBER_OF_BYTES
        BPS             : 194040
        DURATION        : 00:23:39.947000000
        NUMBER_OF_FRAMES: 66561
        NUMBER_OF_BYTES : 34440857
        _STATISTICS_WRITING_APP: mkvpropedit v66.0.0 ('Josie') 64-bit
        _STATISTICS_WRITING_DATE_UTC: 2025-06-17 14:57:20
        encoder         : Lavc61.19.100 pcm_s16le
frame=   75 fps=0.0 q=-0.0 size=N/A time=00:00:03.12 bitrate=N/A speed=6.18x    frame=  179 fps=173 q=-0.0 size=N/A time=00:00:07.46 bitrate=N/A speed=7.22x    frame=  260 fps=168 q=-0.0 size=N/A time=00:00:10.84 bitrate=N/A speed=7.03x    frame=  365 fps=178 q=-0.0 size=N/A time=00:00:15.22 bitrate=N/A speed=7.41x    frame=  462 fps=179 q=-0.0 size=N/A time=00:00:19.26 bitrate=N/A speed=7.47x    frame=  550 fps=178 q=-0.0 size=N/A time=00:00:22.93 bitrate=N/A speed=7.43x    frame=  650 fps=181 q=-0.0 size=N/A time=00:00:27.11 bitrate=N/A speed=7.53x    frame=  742 fps=180 q=-0.0 size=N/A time=00:00:30.94 bitrate=N/A speed= 7.5x    frame=  828 fps=179 q=-0.0 size=N/A time=00:00:34.53 bitrate=N/A speed=7.45x    frame=  925 fps=180 q=-0.0 size=N/A time=00:00:38.58 bitrate=N/A speed= 7.5x    frame= 1019 fps=180 q=-0.0 size=N/A time=00:00:42.50 bitrate=N/A speed=7.49x    frame= 1109 fps=179 q=-0.0 size=N/A time=00:00:46.25 bitrate=N/A speed=7.48x    frame= 1200 fps=179 q=-0.0 size=N/A time=00:00:50.05 bitrate=N/A speed=7.48x    frame= 1295 fps=179 q=-0.0 size=N/A time=00:00:54.01 bitrate=N/A speed=7.48x    frame= 1390 fps=180 q=-0.0 size=N/A time=00:00:57.97 bitrate=N/A speed= 7.5x    frame= 1482 fps=180 q=-0.0 size=N/A time=00:01:01.81 bitrate=N/A speed= 7.5x    frame= 1579 fps=180 q=-0.0 size=N/A time=00:01:05.85 bitrate=N/A speed=7.51x    frame= 1673 fps=180 q=-0.0 size=N/A time=00:01:09.77 bitrate=N/A speed=7.52x    frame= 1765 fps=180 q=-0.0 size=N/A time=00:01:13.61 bitrate=N/A speed=7.52x    frame= 1861 fps=180 q=-0.0 size=N/A time=00:01:17.61 bitrate=N/A speed=7.53x    frame= 1943 fps=179 q=-0.0 size=N/A time=00:01:21.03 bitrate=N/A speed=7.49x    frame= 2043 fps=180 q=-0.0 size=N/A time=00:01:25.21 bitrate=N/A speed=7.51x    frame= 2133 fps=180 q=-0.0 size=N/A time=00:01:28.96 bitrate=N/A speed= 7.5x    frame= 2229 fps=180 q=-0.0 size=N/A time=00:01:32.96 bitrate=N/A speed=7.52x    frame= 2322 fps=180 q=-0.0 size=N/A time=00:01:36.84 bitrate=N/A speed=7.51x    frame= 2405 fps=179 q=-0.0 size=N/A time=00:01:40.30 bitrate=N/A speed=7.48x    frame= 2508 fps=180 q=-0.0 size=N/A time=00:01:44.60 bitrate=N/A speed=7.51x    frame= 2606 fps=181 q=-0.0 size=N/A time=00:01:48.69 bitrate=N/A speed=7.53x    frame= 2703 fps=181 q=-0.0 size=N/A time=00:01:52.73 bitrate=N/A speed=7.54x    frame= 2805 fps=181 q=-0.0 size=N/A time=00:01:56.99 bitrate=N/A speed=7.56x    frame= 2897 fps=181 q=-0.0 size=N/A time=00:02:00.82 bitrate=N/A speed=7.56x    frame= 2996 fps=182 q=-0.0 size=N/A time=00:02:04.95 bitrate=N/A speed=7.58x    frame= 3094 fps=182 q=-0.0 size=N/A time=00:02:09.04 bitrate=N/A speed=7.58x    frame= 3190 fps=182 q=-0.0 size=N/A time=00:02:13.04 bitrate=N/A speed=7.59x    frame= 3284 fps=182 q=-0.0 size=N/A time=00:02:16.97 bitrate=N/A speed=7.59x    frame= 3366 fps=181 q=-0.0 size=N/A time=00:02:20.39 bitrate=N/A speed=7.56x    frame= 3474 fps=182 q=-0.0 size=N/A time=00:02:24.89 bitrate=N/A speed= 7.6x    frame= 3567 fps=182 q=-0.0 size=N/A time=00:02:28.77 bitrate=N/A speed= 7.6x    frame= 3665 fps=182 q=-0.0 size=N/A time=00:02:32.86 bitrate=N/A speed= 7.6x    frame= 3761 fps=182 q=-0.0 size=N/A time=00:02:36.86 bitrate=N/A speed=7.61x    frame= 3857 fps=183 q=-0.0 size=N/A time=00:02:40.86 bitrate=N/A speed=7.61x    frame= 3953 fps=183 q=-0.0 size=N/A time=00:02:44.87 bitrate=N/A speed=7.61x    frame= 4036 fps=182 q=-0.0 size=N/A time=00:02:48.33 bitrate=N/A speed=7.59x    frame= 4144 fps=183 q=-0.0 size=N/A time=00:02:52.83 bitrate=N/A speed=7.62x    frame= 4241 fps=183 q=-0.0 size=N/A time=00:02:56.88 bitrate=N/A speed=7.62x    frame= 4337 fps=183 q=-0.0 size=N/A time=00:03:00.88 bitrate=N/A speed=7.63x    frame= 4423 fps=182 q=-0.0 size=N/A time=00:03:04.47 bitrate=N/A speed=7.61x    frame= 4522 fps=183 q=-0.0 size=N/A time=00:03:08.60 bitrate=N/A speed=7.62x    frame= 4621 fps=183 q=-0.0 size=N/A time=00:03:12.73 bitrate=N/A speed=7.63x    frame= 4727 fps=183 q=-0.0 size=N/A time=00:03:17.15 bitrate=N/A speed=7.65x    frame= 4827 fps=184 q=-0.0 size=N/A time=00:03:21.32 bitrate=N/A speed=7.66x    frame= 4910 fps=183 q=-0.0 size=N/A time=00:03:24.78 bitrate=N/A speed=7.64x    frame= 5009 fps=183 q=-0.0 size=N/A time=00:03:28.91 bitrate=N/A speed=7.64x    frame= 5116 fps=184 q=-0.0 size=N/A time=00:03:33.37 bitrate=N/A speed=7.66x    frame= 5207 fps=184 q=-0.0 size=N/A time=00:03:37.17 bitrate=N/A speed=7.66x    frame= 5309 fps=184 q=-0.0 size=N/A time=00:03:41.42 bitrate=N/A speed=7.67x    frame= 5397 fps=184 q=-0.0 size=N/A time=00:03:45.09 bitrate=N/A speed=7.66x    frame= 5486 fps=183 q=-0.0 size=N/A time=00:03:48.81 bitrate=N/A speed=7.65x    frame= 5590 fps=184 q=-0.0 size=N/A time=00:03:53.14 bitrate=N/A speed=7.66x    frame= 5687 fps=184 q=-0.0 size=N/A time=00:03:57.19 bitrate=N/A speed=7.67x    frame= 5781 fps=184 q=-0.0 size=N/A time=00:04:01.11 bitrate=N/A speed=7.67x    frame= 5876 fps=184 q=-0.0 size=N/A time=00:04:05.07 bitrate=N/A speed=7.67x    frame= 5980 fps=184 q=-0.0 size=N/A time=00:04:09.41 bitrate=N/A speed=7.68x    frame= 6078 fps=184 q=-0.0 size=N/A time=00:04:13.50 bitrate=N/A speed=7.68x    frame= 6175 fps=184 q=-0.0 size=N/A time=00:04:17.54 bitrate=N/A speed=7.68x    frame= 6258 fps=184 q=-0.0 size=N/A time=00:04:21.01 bitrate=N/A speed=7.67x    frame= 6366 fps=184 q=-0.0 size=N/A time=00:04:25.51 bitrate=N/A speed=7.69x    frame= 6462 fps=184 q=-0.0 size=N/A time=00:04:29.51 bitrate=N/A speed=7.69x    frame= 6557 fps=184 q=-0.0 size=N/A time=00:04:33.48 bitrate=N/A speed=7.69x    frame= 6656 fps=184 q=-0.0 size=N/A time=00:04:37.61 bitrate=N/A speed=7.69x    frame= 6750 fps=184 q=-0.0 size=N/A time=00:04:41.53 bitrate=N/A speed=7.69x    frame= 6843 fps=184 q=-0.0 size=N/A time=00:04:45.41 bitrate=N/A speed=7.69x    frame= 6933 fps=184 q=-0.0 size=N/A time=00:04:49.16 bitrate=N/A speed=7.68x    frame= 7032 fps=184 q=-0.0 size=N/A time=00:04:53.29 bitrate=N/A speed=7.69x    frame= 7126 fps=184 q=-0.0 size=N/A time=00:04:57.21 bitrate=N/A speed=7.68x    frame= 7221 fps=184 q=-0.0 size=N/A time=00:05:01.17 bitrate=N/A speed=7.69x    frame= 7310 fps=184 q=-0.0 size=N/A time=00:05:04.88 bitrate=N/A speed=7.68x    frame= 7400 fps=184 q=-0.0 size=N/A time=00:05:08.64 bitrate=N/A speed=7.68x    frame= 7500 fps=184 q=-0.0 size=N/A time=00:05:12.81 bitrate=N/A speed=7.68x    frame= 7600 fps=184 q=-0.0 size=N/A time=00:05:16.98 bitrate=N/A speed=7.69x    frame= 7694 fps=184 q=-0.0 size=N/A time=00:05:20.90 bitrate=N/A speed=7.68x    frame= 7793 fps=184 q=-0.0 size=N/A time=00:05:25.03 bitrate=N/A speed=7.69x    frame= 7897 fps=184 q=-0.0 size=N/A time=00:05:29.37 bitrate=N/A speed=7.69x    frame= 7994 fps=184 q=-0.0 size=N/A time=00:05:33.41 bitrate=N/A speed=7.69x    frame= 8089 fps=185 q=-0.0 size=N/A time=00:05:37.37 bitrate=N/A speed= 7.7x    frame= 8186 fps=185 q=-0.0 size=N/A time=00:05:41.42 bitrate=N/A speed= 7.7x    frame= 8275 fps=184 q=-0.0 size=N/A time=00:05:45.13 bitrate=N/A speed=7.69x    frame= 8375 fps=185 q=-0.0 size=N/A time=00:05:49.30 bitrate=N/A speed= 7.7x    frame= 8470 fps=185 q=-0.0 size=N/A time=00:05:53.26 bitrate=N/A speed= 7.7x    frame= 8566 fps=185 q=-0.0 size=N/A time=00:05:57.27 bitrate=N/A speed= 7.7x    frame= 8665 fps=185 q=-0.0 size=N/A time=00:06:01.40 bitrate=N/A speed= 7.7x    frame= 8757 fps=185 q=-0.0 size=N/A time=00:06:05.23 bitrate=N/A speed= 7.7x    frame= 8851 fps=184 q=-0.0 size=N/A time=00:06:09.16 bitrate=N/A speed= 7.7x    frame= 8955 fps=185 q=-0.0 size=N/A time=00:06:13.49 bitrate=N/A speed= 7.7x    frame= 9050 fps=185 q=-0.0 size=N/A time=00:06:17.46 bitrate=N/A speed= 7.7x    frame= 9146 fps=185 q=-0.0 size=N/A time=00:06:21.46 bitrate=N/A speed= 7.7x    frame= 9243 fps=185 q=-0.0 size=N/A time=00:06:25.51 bitrate=N/A speed= 7.7x    frame= 9332 fps=185 q=-0.0 size=N/A time=00:06:29.22 bitrate=N/A speed= 7.7x    frame= 9432 fps=185 q=-0.0 size=N/A time=00:06:33.39 bitrate=N/A speed= 7.7x    frame= 9521 fps=185 q=-0.0 size=N/A time=00:06:37.10 bitrate=N/A speed= 7.7x    frame= 9613 fps=184 q=-0.0 size=N/A time=00:06:40.94 bitrate=N/A speed=7.69x    frame= 9714 fps=185 q=-0.0 size=N/A time=00:06:45.15 bitrate=N/A speed= 7.7x    frame= 9811 fps=185 q=-0.0 size=N/A time=00:06:49.20 bitrate=N/A speed= 7.7x    frame= 9903 fps=185 q=-0.0 size=N/A time=00:06:53.03 bitrate=N/A speed= 7.7x    frame=10006 fps=185 q=-0.0 size=N/A time=00:06:57.33 bitrate=N/A speed=7.71x    frame=10101 fps=185 q=-0.0 size=N/A time=00:07:01.29 bitrate=N/A speed= 7.7x    frame=10198 fps=185 q=-0.0 size=N/A time=00:07:05.34 bitrate=N/A speed=7.71x    frame=10288 fps=185 q=-0.0 size=N/A time=00:07:09.09 bitrate=N/A speed= 7.7x    frame=10378 fps=185 q=-0.0 size=N/A time=00:07:12.84 bitrate=N/A speed= 7.7x    frame=10482 fps=185 q=-0.0 size=N/A time=00:07:17.18 bitrate=N/A speed= 7.7x    frame=10577 fps=185 q=-0.0 size=N/A time=00:07:21.14 bitrate=N/A speed= 7.7x    frame=10671 fps=185 q=-0.0 size=N/A time=00:07:25.06 bitrate=N/A speed= 7.7x    frame=10753 fps=184 q=-0.0 size=N/A time=00:07:28.48 bitrate=N/A speed=7.69x    frame=10849 fps=184 q=-0.0 size=N/A time=00:07:32.49 bitrate=N/A speed=7.69x    frame=10947 fps=184 q=-0.0 size=N/A time=00:07:36.58 bitrate=N/A speed=7.69x    frame=11035 fps=184 q=-0.0 size=N/A time=00:07:40.25 bitrate=N/A speed=7.69x    frame=11129 fps=184 q=-0.0 size=N/A time=00:07:44.17 bitrate=N/A speed=7.69x    frame=11232 fps=184 q=-0.0 size=N/A time=00:07:48.46 bitrate=N/A speed=7.69x    frame=11315 fps=184 q=-0.0 size=N/A time=00:07:51.92 bitrate=N/A speed=7.69x    frame=11404 fps=184 q=-0.0 size=N/A time=00:07:55.64 bitrate=N/A speed=7.68x    frame=11502 fps=184 q=-0.0 size=N/A time=00:07:59.72 bitrate=N/A speed=7.68x    frame=11588 fps=184 q=-0.0 size=N/A time=00:08:03.31 bitrate=N/A speed=7.68x    frame=11673 fps=184 q=-0.0 size=N/A time=00:08:06.86 bitrate=N/A speed=7.67x    frame=11769 fps=184 q=-0.0 size=N/A time=00:08:10.86 bitrate=N/A speed=7.67x    frame=11869 fps=184 q=-0.0 size=N/A time=00:08:15.03 bitrate=N/A speed=7.68x    frame=11961 fps=184 q=-0.0 size=N/A time=00:08:18.87 bitrate=N/A speed=7.67x    frame=12060 fps=184 q=-0.0 size=N/A time=00:08:23.00 bitrate=N/A speed=7.68x    frame=12151 fps=184 q=-0.0 size=N/A time=00:08:26.79 bitrate=N/A speed=7.67x    frame=12248 fps=184 q=-0.0 size=N/A time=00:08:30.84 bitrate=N/A speed=7.67x    frame=12335 fps=184 q=-0.0 size=N/A time=00:08:34.47 bitrate=N/A speed=7.67x    frame=12434 fps=184 q=-0.0 size=N/A time=00:08:38.60 bitrate=N/A speed=7.67x    frame=12522 fps=184 q=-0.0 size=N/A time=00:08:42.27 bitrate=N/A speed=7.67x    frame=12624 fps=184 q=-0.0 size=N/A time=00:08:46.52 bitrate=N/A speed=7.67x    frame=12719 fps=184 q=-0.0 size=N/A time=00:08:50.48 bitrate=N/A speed=7.67x    frame=12817 fps=184 q=-0.0 size=N/A time=00:08:54.57 bitrate=N/A speed=7.67x    frame=12900 fps=184 q=-0.0 size=N/A time=00:08:58.03 bitrate=N/A speed=7.67x    frame=13007 fps=184 q=-0.0 size=N/A time=00:09:02.50 bitrate=N/A speed=7.67x    frame=13103 fps=184 q=-0.0 size=N/A time=00:09:06.50 bitrate=N/A speed=7.67x    frame=13204 fps=184 q=-0.0 size=N/A time=00:09:10.71 bitrate=N/A speed=7.68x    frame=13300 fps=184 q=-0.0 size=N/A time=00:09:14.72 bitrate=N/A speed=7.68x    frame=13400 fps=184 q=-0.0 size=N/A time=00:09:18.89 bitrate=N/A speed=7.68x    frame=13493 fps=184 q=-0.0 size=N/A time=00:09:22.77 bitrate=N/A speed=7.68x    frame=13590 fps=184 q=-0.0 size=N/A time=00:09:26.81 bitrate=N/A speed=7.68x    frame=13687 fps=184 q=-0.0 size=N/A time=00:09:30.86 bitrate=N/A speed=7.68x    frame=13796 fps=184 q=-0.0 size=N/A time=00:09:35.40 bitrate=N/A speed=7.69x    frame=13886 fps=184 q=-0.0 size=N/A time=00:09:39.16 bitrate=N/A speed=7.69x    frame=13986 fps=184 q=-0.0 size=N/A time=00:09:43.33 bitrate=N/A speed=7.69x    frame=14091 fps=184 q=-0.0 size=N/A time=00:09:47.71 bitrate=N/A speed=7.69x    frame=14186 fps=184 q=-0.0 size=N/A time=00:09:51.67 bitrate=N/A speed=7.69x    frame=14285 fps=185 q=-0.0 size=N/A time=00:09:55.80 bitrate=N/A speed= 7.7x    frame=14384 fps=185 q=-0.0 size=N/A time=00:09:59.93 bitrate=N/A speed= 7.7x    frame=14481 fps=185 q=-0.0 size=N/A time=00:10:03.97 bitrate=N/A speed= 7.7x    frame=14579 fps=185 q=-0.0 size=N/A time=00:10:08.06 bitrate=N/A speed= 7.7x    frame=14680 fps=185 q=-0.0 size=N/A time=00:10:12.27 bitrate=N/A speed= 7.7x    frame=14776 fps=185 q=-0.0 size=N/A time=00:10:16.28 bitrate=N/A speed= 7.7x    frame=14879 fps=185 q=-0.0 size=N/A time=00:10:20.57 bitrate=N/A speed=7.71x    frame=14974 fps=185 q=-0.0 size=N/A time=00:10:24.54 bitrate=N/A speed=7.71x    frame=15062 fps=185 q=-0.0 size=N/A time=00:10:28.21 bitrate=N/A speed= 7.7x    frame=15170 fps=185 q=-0.0 size=N/A time=00:10:32.71 bitrate=N/A speed=7.71x    frame=15269 fps=185 q=-0.0 size=N/A time=00:10:36.84 bitrate=N/A speed=7.71x    frame=15366 fps=185 q=-0.0 size=N/A time=00:10:40.89 bitrate=N/A speed=7.71x    frame=15459 fps=185 q=-0.0 size=N/A time=00:10:44.76 bitrate=N/A speed=7.71x    frame=15564 fps=185 q=-0.0 size=N/A time=00:10:49.14 bitrate=N/A speed=7.72x    frame=15660 fps=185 q=-0.0 size=N/A time=00:10:53.15 bitrate=N/A speed=7.72x    frame=15760 fps=185 q=-0.0 size=N/A time=00:10:57.32 bitrate=N/A speed=7.72x    frame=15861 fps=185 q=-0.0 size=N/A time=00:11:01.53 bitrate=N/A speed=7.72x    frame=15955 fps=185 q=-0.0 size=N/A time=00:11:05.45 bitrate=N/A speed=7.72x    frame=16058 fps=185 q=-0.0 size=N/A time=00:11:09.75 bitrate=N/A speed=7.72x    frame=16158 fps=185 q=-0.0 size=N/A time=00:11:13.92 bitrate=N/A speed=7.73x    frame=16258 fps=185 q=-0.0 size=N/A time=00:11:18.09 bitrate=N/A speed=7.73x    frame=16357 fps=185 q=-0.0 size=N/A time=00:11:22.22 bitrate=N/A speed=7.73x    frame=16454 fps=185 q=-0.0 size=N/A time=00:11:26.26 bitrate=N/A speed=7.73x    frame=16553 fps=185 q=-0.0 size=N/A time=00:11:30.39 bitrate=N/A speed=7.73x    frame=16655 fps=185 q=-0.0 size=N/A time=00:11:34.65 bitrate=N/A speed=7.74x    frame=16754 fps=186 q=-0.0 size=N/A time=00:11:38.78 bitrate=N/A speed=7.74x    frame=16848 fps=186 q=-0.0 size=N/A time=00:11:42.70 bitrate=N/A speed=7.74x    frame=16957 fps=186 q=-0.0 size=N/A time=00:11:47.24 bitrate=N/A speed=7.74x    frame=17048 fps=186 q=-0.0 size=N/A time=00:11:51.04 bitrate=N/A speed=7.74x    frame=17148 fps=186 q=-0.0 size=N/A time=00:11:55.21 bitrate=N/A speed=7.74x    frame=17249 fps=186 q=-0.0 size=N/A time=00:11:59.42 bitrate=N/A speed=7.74x    frame=17344 fps=186 q=-0.0 size=N/A time=00:12:03.38 bitrate=N/A speed=7.74x    frame=17442 fps=186 q=-0.0 size=N/A time=00:12:07.47 bitrate=N/A speed=7.75x    frame=17542 fps=186 q=-0.0 size=N/A time=00:12:11.64 bitrate=N/A speed=7.75x    frame=17637 fps=186 q=-0.0 size=N/A time=00:12:15.60 bitrate=N/A speed=7.75x    frame=17727 fps=186 q=-0.0 size=N/A time=00:12:19.36 bitrate=N/A speed=7.75x    frame=17825 fps=186 q=-0.0 size=N/A time=00:12:23.45 bitrate=N/A speed=7.75x    frame=17918 fps=186 q=-0.0 size=N/A time=00:12:27.32 bitrate=N/A speed=7.75x    frame=18001 fps=186 q=-0.0 size=N/A time=00:12:30.79 bitrate=N/A speed=7.74x    frame=18109 fps=186 q=-0.0 size=N/A time=00:12:35.29 bitrate=N/A speed=7.74x    frame=18205 fps=186 q=-0.0 size=N/A time=00:12:39.30 bitrate=N/A speed=7.74x    frame=18299 fps=186 q=-0.0 size=N/A time=00:12:43.22 bitrate=N/A speed=7.74x    frame=18397 fps=186 q=-0.0 size=N/A time=00:12:47.30 bitrate=N/A speed=7.74x    frame=18498 fps=186 q=-0.0 size=N/A time=00:12:51.52 bitrate=N/A speed=7.75x    frame=18598 fps=186 q=-0.0 size=N/A time=00:12:55.69 bitrate=N/A speed=7.75x    frame=18691 fps=186 q=-0.0 size=N/A time=00:12:59.57 bitrate=N/A speed=7.75x    frame=18786 fps=186 q=-0.0 size=N/A time=00:13:03.53 bitrate=N/A speed=7.75x    frame=18887 fps=186 q=-0.0 size=N/A time=00:13:07.74 bitrate=N/A speed=7.75x    frame=18984 fps=186 q=-0.0 size=N/A time=00:13:11.79 bitrate=N/A speed=7.75x    frame=19081 fps=186 q=-0.0 size=N/A time=00:13:15.83 bitrate=N/A speed=7.75x    frame=19179 fps=186 q=-0.0 size=N/A time=00:13:19.92 bitrate=N/A speed=7.75x    frame=19274 fps=186 q=-0.0 size=N/A time=00:13:23.88 bitrate=N/A speed=7.75x    frame=19376 fps=186 q=-0.0 size=N/A time=00:13:28.14 bitrate=N/A speed=7.75x    frame=19475 fps=186 q=-0.0 size=N/A time=00:13:32.26 bitrate=N/A speed=7.75x    frame=19560 fps=186 q=-0.0 size=N/A time=00:13:35.81 bitrate=N/A speed=7.75x    frame=19671 fps=186 q=-0.0 size=N/A time=00:13:40.44 bitrate=N/A speed=7.75x    frame=19765 fps=186 q=-0.0 size=N/A time=00:13:44.36 bitrate=N/A speed=7.75x    frame=19862 fps=186 q=-0.0 size=N/A time=00:13:48.41 bitrate=N/A speed=7.76x    frame=19962 fps=186 q=-0.0 size=N/A time=00:13:52.58 bitrate=N/A speed=7.76x    frame=20061 fps=186 q=-0.0 size=N/A time=00:13:56.71 bitrate=N/A speed=7.76x    frame=20157 fps=186 q=-0.0 size=N/A time=00:14:00.71 bitrate=N/A speed=7.76x    frame=20255 fps=186 q=-0.0 size=N/A time=00:14:04.80 bitrate=N/A speed=7.76x    frame=20338 fps=186 q=-0.0 size=N/A time=00:14:08.26 bitrate=N/A speed=7.75x    frame=20447 fps=186 q=-0.0 size=N/A time=00:14:12.81 bitrate=N/A speed=7.76x    frame=20548 fps=186 q=-0.0 size=N/A time=00:14:17.02 bitrate=N/A speed=7.76x    frame=20648 fps=186 q=-0.0 size=N/A time=00:14:21.19 bitrate=N/A speed=7.76x    frame=20745 fps=186 q=-0.0 size=N/A time=00:14:25.23 bitrate=N/A speed=7.76x    frame=20831 fps=186 q=-0.0 size=N/A time=00:14:28.82 bitrate=N/A speed=7.76x    frame=20934 fps=186 q=-0.0 size=N/A time=00:14:33.12 bitrate=N/A speed=7.76x    frame=21033 fps=186 q=-0.0 size=N/A time=00:14:37.25 bitrate=N/A speed=7.76x    frame=21129 fps=186 q=-0.0 size=N/A time=00:14:41.25 bitrate=N/A speed=7.76x    frame=21233 fps=186 q=-0.0 size=N/A time=00:14:45.59 bitrate=N/A speed=7.77x    frame=21333 fps=186 q=-0.0 size=N/A time=00:14:49.76 bitrate=N/A speed=7.77x    frame=21432 fps=186 q=-0.0 size=N/A time=00:14:53.89 bitrate=N/A speed=7.77x    frame=21516 fps=186 q=-0.0 size=N/A time=00:14:57.39 bitrate=N/A speed=7.76x    frame=21620 fps=186 q=-0.0 size=N/A time=00:15:01.73 bitrate=N/A speed=7.77x    frame=21721 fps=186 q=-0.0 size=N/A time=00:15:05.94 bitrate=N/A speed=7.77x    frame=21817 fps=186 q=-0.0 size=N/A time=00:15:09.95 bitrate=N/A speed=7.77x    frame=21917 fps=186 q=-0.0 size=N/A time=00:15:14.12 bitrate=N/A speed=7.77x    frame=22014 fps=186 q=-0.0 size=N/A time=00:15:18.16 bitrate=N/A speed=7.77x    frame=22110 fps=186 q=-0.0 size=N/A time=00:15:22.17 bitrate=N/A speed=7.77x    frame=22209 fps=186 q=-0.0 size=N/A time=00:15:26.30 bitrate=N/A speed=7.77x    frame=22308 fps=186 q=-0.0 size=N/A time=00:15:30.42 bitrate=N/A speed=7.77x    frame=22392 fps=186 q=-0.0 size=N/A time=00:15:33.93 bitrate=N/A speed=7.77x    frame=22504 fps=186 q=-0.0 size=N/A time=00:15:38.60 bitrate=N/A speed=7.77x    frame=22603 fps=186 q=-0.0 size=N/A time=00:15:42.73 bitrate=N/A speed=7.77x    frame=22700 fps=186 q=-0.0 size=N/A time=00:15:46.77 bitrate=N/A speed=7.78x    frame=22799 fps=186 q=-0.0 size=N/A time=00:15:50.90 bitrate=N/A speed=7.78x    frame=22884 fps=186 q=-0.0 size=N/A time=00:15:54.45 bitrate=N/A speed=7.77x    frame=22988 fps=186 q=-0.0 size=N/A time=00:15:58.79 bitrate=N/A speed=7.77x    frame=23088 fps=186 q=-0.0 size=N/A time=00:16:02.96 bitrate=N/A speed=7.78x    frame=23187 fps=186 q=-0.0 size=N/A time=00:16:07.09 bitrate=N/A speed=7.78x    frame=23286 fps=186 q=-0.0 size=N/A time=00:16:11.22 bitrate=N/A speed=7.78x    frame=23386 fps=187 q=-0.0 size=N/A time=00:16:15.39 bitrate=N/A speed=7.78x    frame=23483 fps=187 q=-0.0 size=N/A time=00:16:19.43 bitrate=N/A speed=7.78x    frame=23579 fps=187 q=-0.0 size=N/A time=00:16:23.44 bitrate=N/A speed=7.78x    frame=23675 fps=187 q=-0.0 size=N/A time=00:16:27.44 bitrate=N/A speed=7.78x    frame=23768 fps=186 q=-0.0 size=N/A time=00:16:31.32 bitrate=N/A speed=7.78x    frame=23875 fps=187 q=-0.0 size=N/A time=00:16:35.78 bitrate=N/A speed=7.78x    frame=23979 fps=187 q=-0.0 size=N/A time=00:16:40.12 bitrate=N/A speed=7.78x    frame=24077 fps=187 q=-0.0 size=N/A time=00:16:44.21 bitrate=N/A speed=7.78x    frame=24170 fps=187 q=-0.0 size=N/A time=00:16:48.09 bitrate=N/A speed=7.78x    frame=24271 fps=187 q=-0.0 size=N/A time=00:16:52.30 bitrate=N/A speed=7.78x    frame=24373 fps=187 q=-0.0 size=N/A time=00:16:56.55 bitrate=N/A speed=7.79x    frame=24471 fps=187 q=-0.0 size=N/A time=00:17:00.64 bitrate=N/A speed=7.79x    frame=24571 fps=187 q=-0.0 size=N/A time=00:17:04.81 bitrate=N/A speed=7.79x    frame=24668 fps=187 q=-0.0 size=N/A time=00:17:08.86 bitrate=N/A speed=7.79x    frame=24765 fps=187 q=-0.0 size=N/A time=00:17:12.90 bitrate=N/A speed=7.79x    frame=24864 fps=187 q=-0.0 size=N/A time=00:17:17.03 bitrate=N/A speed=7.79x    frame=24953 fps=187 q=-0.0 size=N/A time=00:17:20.74 bitrate=N/A speed=7.79x    frame=25060 fps=187 q=-0.0 size=N/A time=00:17:25.21 bitrate=N/A speed=7.79x    frame=25160 fps=187 q=-0.0 size=N/A time=00:17:29.38 bitrate=N/A speed=7.79x    frame=25264 fps=187 q=-0.0 size=N/A time=00:17:33.71 bitrate=N/A speed=7.79x    frame=25362 fps=187 q=-0.0 size=N/A time=00:17:37.80 bitrate=N/A speed=7.79x    frame=25462 fps=187 q=-0.0 size=N/A time=00:17:41.97 bitrate=N/A speed= 7.8x    frame=25550 fps=187 q=-0.0 size=N/A time=00:17:45.64 bitrate=N/A speed=7.79x    frame=25654 fps=187 q=-0.0 size=N/A time=00:17:49.98 bitrate=N/A speed=7.79x    frame=25754 fps=187 q=-0.0 size=N/A time=00:17:54.15 bitrate=N/A speed= 7.8x    frame=25852 fps=187 q=-0.0 size=N/A time=00:17:58.24 bitrate=N/A speed= 7.8x    frame=25950 fps=187 q=-0.0 size=N/A time=00:18:02.33 bitrate=N/A speed= 7.8x    frame=26051 fps=187 q=-0.0 size=N/A time=00:18:06.54 bitrate=N/A speed= 7.8x    frame=26142 fps=187 q=-0.0 size=N/A time=00:18:10.33 bitrate=N/A speed= 7.8x    frame=26245 fps=187 q=-0.0 size=N/A time=00:18:14.63 bitrate=N/A speed= 7.8x    frame=26337 fps=187 q=-0.0 size=N/A time=00:18:18.47 bitrate=N/A speed= 7.8x    frame=26445 fps=187 q=-0.0 size=N/A time=00:18:22.97 bitrate=N/A speed= 7.8x    frame=26533 fps=187 q=-0.0 size=N/A time=00:18:26.64 bitrate=N/A speed= 7.8x    frame=26622 fps=187 q=-0.0 size=N/A time=00:18:30.35 bitrate=N/A speed= 7.8x    frame=26732 fps=187 q=-0.0 size=N/A time=00:18:34.94 bitrate=N/A speed= 7.8x    frame=26826 fps=187 q=-0.0 size=N/A time=00:18:38.86 bitrate=N/A speed= 7.8x    frame=26926 fps=187 q=-0.0 size=N/A time=00:18:43.03 bitrate=N/A speed= 7.8x    frame=27023 fps=187 q=-0.0 size=N/A time=00:18:47.08 bitrate=N/A speed= 7.8x    frame=27113 fps=187 q=-0.0 size=N/A time=00:18:50.83 bitrate=N/A speed= 7.8x    frame=27212 fps=187 q=-0.0 size=N/A time=00:18:54.96 bitrate=N/A speed= 7.8x    frame=27305 fps=187 q=-0.0 size=N/A time=00:18:58.84 bitrate=N/A speed= 7.8x    frame=27415 fps=187 q=-0.0 size=N/A time=00:19:03.43 bitrate=N/A speed= 7.8x    frame=27497 fps=187 q=-0.0 size=N/A time=00:19:06.85 bitrate=N/A speed= 7.8x    frame=27603 fps=187 q=-0.0 size=N/A time=00:19:11.27 bitrate=N/A speed= 7.8x    frame=27702 fps=187 q=-0.0 size=N/A time=00:19:15.40 bitrate=N/A speed= 7.8x    frame=27797 fps=187 q=-0.0 size=N/A time=00:19:19.36 bitrate=N/A speed= 7.8x    frame=27886 fps=187 q=-0.0 size=N/A time=00:19:23.07 bitrate=N/A speed= 7.8x    frame=27987 fps=187 q=-0.0 size=N/A time=00:19:27.29 bitrate=N/A speed= 7.8x    frame=28074 fps=187 q=-0.0 size=N/A time=00:19:30.91 bitrate=N/A speed= 7.8x    frame=28162 fps=187 q=-0.0 size=N/A time=00:19:34.59 bitrate=N/A speed=7.79x    frame=28244 fps=187 q=-0.0 size=N/A time=00:19:38.01 bitrate=N/A speed=7.79x    frame=28338 fps=187 q=-0.0 size=N/A time=00:19:41.93 bitrate=N/A speed=7.79x    frame=28435 fps=187 q=-0.0 size=N/A time=00:19:45.97 bitrate=N/A speed=7.79x    frame=28531 fps=187 q=-0.0 size=N/A time=00:19:49.98 bitrate=N/A speed=7.79x    frame=28628 fps=187 q=-0.0 size=N/A time=00:19:54.02 bitrate=N/A speed=7.79x    frame=28725 fps=187 q=-0.0 size=N/A time=00:19:58.07 bitrate=N/A speed=7.79x    frame=28822 fps=187 q=-0.0 size=N/A time=00:20:02.11 bitrate=N/A speed=7.79x    frame=28909 fps=187 q=-0.0 size=N/A time=00:20:05.74 bitrate=N/A speed=7.79x    frame=29012 fps=187 q=-0.0 size=N/A time=00:20:10.04 bitrate=N/A speed=7.79x    frame=29102 fps=187 q=-0.0 size=N/A time=00:20:13.79 bitrate=N/A speed=7.79x    frame=29201 fps=187 q=-0.0 size=N/A time=00:20:17.92 bitrate=N/A speed=7.79x    frame=29288 fps=187 q=-0.0 size=N/A time=00:20:21.55 bitrate=N/A speed=7.79x    frame=29380 fps=187 q=-0.0 size=N/A time=00:20:25.39 bitrate=N/A speed=7.78x    frame=29466 fps=187 q=-0.0 size=N/A time=00:20:28.97 bitrate=N/A speed=7.78x    frame=29557 fps=187 q=-0.0 size=N/A time=00:20:32.77 bitrate=N/A speed=7.78x    frame=29649 fps=187 q=-0.0 size=N/A time=00:20:36.61 bitrate=N/A speed=7.78x    frame=29736 fps=186 q=-0.0 size=N/A time=00:20:40.23 bitrate=N/A speed=7.78x    frame=29825 fps=186 q=-0.0 size=N/A time=00:20:43.95 bitrate=N/A speed=7.77x    frame=29905 fps=186 q=-0.0 size=N/A time=00:20:47.28 bitrate=N/A speed=7.77x    frame=30001 fps=186 q=-0.0 size=N/A time=00:20:51.29 bitrate=N/A speed=7.77x    frame=30090 fps=186 q=-0.0 size=N/A time=00:20:55.00 bitrate=N/A speed=7.77x    frame=30186 fps=186 q=-0.0 size=N/A time=00:20:59.00 bitrate=N/A speed=7.77x    frame=30284 fps=186 q=-0.0 size=N/A time=00:21:03.09 bitrate=N/A speed=7.77x    frame=30372 fps=186 q=-0.0 size=N/A time=00:21:06.76 bitrate=N/A speed=7.77x    frame=30473 fps=186 q=-0.0 size=N/A time=00:21:10.97 bitrate=N/A speed=7.77x    frame=30574 fps=186 q=-0.0 size=N/A time=00:21:15.19 bitrate=N/A speed=7.77x    frame=30666 fps=186 q=-0.0 size=N/A time=00:21:19.02 bitrate=N/A speed=7.77x    frame=30762 fps=186 q=-0.0 size=N/A time=00:21:23.03 bitrate=N/A speed=7.77x    frame=30861 fps=186 q=-0.0 size=N/A time=00:21:27.16 bitrate=N/A speed=7.77x    frame=30957 fps=186 q=-0.0 size=N/A time=00:21:31.16 bitrate=N/A speed=7.77x    frame=31041 fps=186 q=-0.0 size=N/A time=00:21:34.66 bitrate=N/A speed=7.77x    frame=31144 fps=186 q=-0.0 size=N/A time=00:21:38.96 bitrate=N/A speed=7.77x    frame=31243 fps=186 q=-0.0 size=N/A time=00:21:43.09 bitrate=N/A speed=7.77x    frame=31341 fps=186 q=-0.0 size=N/A time=00:21:47.18 bitrate=N/A speed=7.77x    frame=31441 fps=186 q=-0.0 size=N/A time=00:21:51.35 bitrate=N/A speed=7.77x    frame=31538 fps=186 q=-0.0 size=N/A time=00:21:55.39 bitrate=N/A speed=7.77x    frame=31631 fps=186 q=-0.0 size=N/A time=00:21:59.27 bitrate=N/A speed=7.77x    frame=31730 fps=186 q=-0.0 size=N/A time=00:22:03.40 bitrate=N/A speed=7.77x    frame=31828 fps=186 q=-0.0 size=N/A time=00:22:07.49 bitrate=N/A speed=7.77x    frame=31927 fps=186 q=-0.0 size=N/A time=00:22:11.62 bitrate=N/A speed=7.77x    frame=32023 fps=186 q=-0.0 size=N/A time=00:22:15.62 bitrate=N/A speed=7.77x    frame=32122 fps=186 q=-0.0 size=N/A time=00:22:19.75 bitrate=N/A speed=7.77x    frame=32223 fps=186 q=-0.0 size=N/A time=00:22:23.96 bitrate=N/A speed=7.77x    frame=32313 fps=186 q=-0.0 size=N/A time=00:22:27.72 bitrate=N/A speed=7.77x    frame=32412 fps=186 q=-0.0 size=N/A time=00:22:31.85 bitrate=N/A speed=7.77x    frame=32511 fps=186 q=-0.0 size=N/A time=00:22:35.97 bitrate=N/A speed=7.77x    frame=32606 fps=186 q=-0.0 size=N/A time=00:22:39.94 bitrate=N/A speed=7.77x    frame=32708 fps=186 q=-0.0 size=N/A time=00:22:44.19 bitrate=N/A speed=7.77x    frame=32804 fps=186 q=-0.0 size=N/A time=00:22:48.20 bitrate=N/A speed=7.77x    frame=32900 fps=186 q=-0.0 size=N/A time=00:22:52.20 bitrate=N/A speed=7.77x    frame=32996 fps=186 q=-0.0 size=N/A time=00:22:56.20 bitrate=N/A speed=7.77x    frame=33092 fps=186 q=-0.0 size=N/A time=00:23:00.21 bitrate=N/A speed=7.77x    frame=33192 fps=186 q=-0.0 size=N/A time=00:23:04.38 bitrate=N/A speed=7.77x    frame=33287 fps=186 q=-0.0 size=N/A time=00:23:08.34 bitrate=N/A speed=7.77x    frame=33385 fps=186 q=-0.0 size=N/A time=00:23:12.43 bitrate=N/A speed=7.77x    frame=33480 fps=186 q=-0.0 size=N/A time=00:23:16.39 bitrate=N/A speed=7.77x    frame=33569 fps=186 q=-0.0 size=N/A time=00:23:20.10 bitrate=N/A speed=7.77x    frame=33666 fps=186 q=-0.0 size=N/A time=00:23:24.15 bitrate=N/A speed=7.77x    frame=33759 fps=186 q=-0.0 size=N/A time=00:23:28.03 bitrate=N/A speed=7.77x    frame=33850 fps=186 q=-0.0 size=N/A time=00:23:31.82 bitrate=N/A speed=7.77x    frame=33945 fps=186 q=-0.0 size=N/A time=00:23:35.78 bitrate=N/A speed=7.77x    frame=34042 fps=186 q=-0.0 size=N/A time=00:23:39.83 bitrate=N/A speed=7.77x    [Parsed_ssim_10 @ 000001f5b087ea40] SSIM Y:0.992282 (21.125111) U:0.992965 (21.527277) V:0.993132 (21.631923) All:0.992538 (21.271288)
[out#0/null @ 000001f5a93a3800] video:14628KiB audio:266244KiB subtitle:0KiB other streams:0KiB global headers:0KiB muxing overhead: unknown
frame=34044 fps=186 q=-0.0 Lsize=N/A time=00:23:39.91 bitrate=N/A speed=7.77x    
